<svg width="32" height="32" viewBox="0 0 32 32" fill="none" xmlns="http://www.w3.org/2000/svg">
<path d="M11.8752 22.0008H20.1252C20.2628 22.0008 20.3752 21.8883 20.3752 21.7508V19.1258C20.3752 18.9883 20.2628 18.8758 20.1252 18.8758H18.8752C18.7377 18.8758 18.6252 18.9883 18.6252 19.1258V20.2508H13.3752V19.1258C13.3752 18.9883 13.2627 18.8758 13.1252 18.8758H11.8752C11.7378 18.8758 11.6252 18.9883 11.6252 19.1258V21.7508C11.6252 21.8883 11.7378 22.0008 11.8752 22.0008ZM22.5002 18.157C22.5002 18.4886 22.6319 18.8065 22.8664 19.0409C23.1008 19.2753 23.4187 19.407 23.7502 19.407C24.0818 19.407 24.3997 19.2753 24.6341 19.0409C24.8686 18.8065 25.0002 18.4886 25.0002 18.157C25.0002 17.8255 24.8686 17.5076 24.6341 17.2731C24.3997 17.0387 24.0818 16.907 23.7502 16.907C23.4187 16.907 23.1008 17.0387 22.8664 17.2731C22.6319 17.5076 22.5002 17.8255 22.5002 18.157ZM29.969 12.9195L29.2284 11.6258C29.1951 11.5687 29.1406 11.5272 29.0767 11.5102C29.0129 11.4932 28.945 11.5022 28.8878 11.5352L27.3034 12.4602L24.8565 5.70391C24.7273 5.30076 24.4733 4.94911 24.1313 4.69971C23.7892 4.45032 23.3767 4.31609 22.9534 4.31641H9.41275C8.32837 4.31641 7.36587 5.01641 7.0315 6.05078L4.70025 12.4633L3.11275 11.5383C3.05551 11.5053 2.98757 11.4964 2.92375 11.5134C2.85993 11.5303 2.80542 11.5719 2.77212 11.6289L2.0315 12.9195C1.96275 13.0383 2.00337 13.1883 2.12212 13.257L4.00962 14.357L3.5565 15.607C3.519 15.707 3.50025 15.8133 3.50025 15.9195V26.8008C3.50025 27.2914 3.869 27.6883 4.32212 27.6883H6.43462C6.819 27.6883 7.15337 27.3977 7.23462 26.9914L7.47525 25.8133H24.5252L24.7659 26.9914C24.8503 27.3977 25.1815 27.6883 25.5659 27.6883H27.6784C28.1315 27.6883 28.5002 27.2914 28.5002 26.8008V15.9195C28.5002 15.8133 28.4815 15.707 28.444 15.607L27.9909 14.357L29.8752 13.257C29.932 13.2243 29.9736 13.1706 29.9911 13.1074C30.0086 13.0443 30.0007 12.9769 29.969 12.9195ZM26.2502 16.157V23.5633H5.75025V16.157L6.23775 14.8133H25.7628L26.2502 16.157ZM9.14712 6.81641L9.16275 6.77578L9.17525 6.73516C9.20962 6.63203 9.30337 6.56328 9.41275 6.56328H22.7752L25.1315 13.0633H6.87525L9.14712 6.81641ZM7.00025 18.157C7.00025 18.4886 7.13195 18.8065 7.36637 19.0409C7.60079 19.2753 7.91873 19.407 8.25025 19.407C8.58177 19.407 8.89971 19.2753 9.13413 19.0409C9.36855 18.8065 9.50025 18.4886 9.50025 18.157C9.50025 17.8255 9.36855 17.5076 9.13413 17.2731C8.89971 17.0387 8.58177 16.907 8.25025 16.907C7.91873 16.907 7.60079 17.0387 7.36637 17.2731C7.13195 17.5076 7.00025 17.8255 7.00025 18.157Z" fill="#7B341E"/>
</svg>
