<svg width="32" height="32" viewBox="0 0 32 32" fill="none" xmlns="http://www.w3.org/2000/svg">
<path d="M18.666 2.66602C21.1059 2.66485 23.4725 3.50024 25.3711 5.03285C27.2697 6.56546 28.5854 8.70265 29.0989 11.088C29.6123 13.4733 29.2925 15.9626 28.1927 18.1406C27.0929 20.3186 25.2796 22.0538 23.0553 23.0567C22.3443 24.6286 21.2627 26.0045 19.9031 27.0666C18.5436 28.1286 16.9467 28.8451 15.2495 29.1545C13.5522 29.4639 11.8053 29.357 10.1585 28.8429C8.51161 28.3289 7.01402 27.4231 5.79412 26.2032C4.57422 24.9833 3.66841 23.4857 3.15439 21.8389C2.64036 20.192 2.53346 18.4451 2.84285 16.7478C3.15223 15.0506 3.86868 13.4537 4.93073 12.0942C5.99278 10.7347 7.36875 9.65301 8.94063 8.94202C9.78616 7.0712 11.1534 5.48402 12.8784 4.37083C14.6034 3.25763 16.613 2.6657 18.666 2.66602ZM13.3326 10.666C12.2821 10.666 11.2418 10.8729 10.2712 11.275C9.30056 11.677 8.41865 12.2663 7.67578 13.0092C6.93291 13.752 6.34364 14.6339 5.9416 15.6045C5.53956 16.5752 5.33263 17.6154 5.33263 18.666C5.33263 19.7166 5.53956 20.7569 5.9416 21.7275C6.34364 22.6981 6.93291 23.58 7.67578 24.3229C8.41865 25.0657 9.30056 25.655 10.2712 26.0571C11.2418 26.4591 12.2821 26.666 13.3326 26.666C15.4544 26.666 17.4892 25.8232 18.9895 24.3229C20.4898 22.8226 21.3326 20.7878 21.3326 18.666C21.3326 16.5443 20.4898 14.5095 18.9895 13.0092C17.4892 11.5089 15.4544 10.666 13.3326 10.666ZM14.666 11.9994V13.3327H17.3326V15.9994H11.9993C11.8327 15.999 11.672 16.0611 11.5489 16.1734C11.4258 16.2856 11.3492 16.4399 11.3341 16.6058C11.3191 16.7717 11.3667 16.9372 11.4676 17.0698C11.5685 17.2024 11.7154 17.2923 11.8793 17.322L11.9993 17.3327H14.666C15.55 17.3327 16.3979 17.6839 17.023 18.309C17.6481 18.9341 17.9993 19.782 17.9993 20.666C17.9993 21.5501 17.6481 22.3979 17.023 23.023C16.3979 23.6482 15.55 23.9993 14.666 23.9993V25.3327H11.9993V23.9993H9.33263V21.3327H14.666C14.8326 21.333 14.9932 21.2709 15.1163 21.1587C15.2395 21.0464 15.3161 20.8922 15.3311 20.7263C15.3462 20.5603 15.2986 20.3948 15.1977 20.2622C15.0968 20.1297 14.9499 20.0397 14.786 20.01L14.666 19.9994H11.9993C11.1152 19.9994 10.2674 19.6482 9.64228 19.023C9.01716 18.3979 8.66597 17.5501 8.66597 16.666C8.66597 15.782 9.01716 14.9341 9.64228 14.309C10.2674 13.6839 11.1152 13.3327 11.9993 13.3327V11.9994H14.666ZM18.666 5.33268C17.5362 5.33136 16.4191 5.56994 15.3884 6.03263C14.3577 6.49532 13.4371 7.17159 12.6873 8.01668C14.1943 7.9252 15.7036 8.15468 17.1153 8.68995C18.527 9.22521 19.809 10.0541 20.8766 11.1217C21.9441 12.1894 22.7728 13.4715 23.3079 14.8833C23.843 16.295 24.0723 17.8043 23.9806 19.3114C25.1929 18.2335 26.0489 16.8126 26.4351 15.2371C26.8212 13.6616 26.7193 12.0059 26.1428 10.4896C25.5663 8.97339 24.5425 7.6682 23.2072 6.74719C21.8719 5.82618 20.2881 5.33287 18.666 5.33268Z" fill="#276749"/>
</svg>
