<svg width="32" height="32" viewBox="0 0 32 32" fill="none" xmlns="http://www.w3.org/2000/svg">
<path fill-rule="evenodd" clip-rule="evenodd" d="M15.292 2.29379C15.3849 2.20066 15.4952 2.12678 15.6167 2.07636C15.7382 2.02595 15.8685 2 16 2C16.1315 2 16.2618 2.02595 16.3833 2.07636C16.5048 2.12678 16.6151 2.20066 16.708 2.29379L28.708 14.2938C28.8008 14.3868 28.8744 14.4972 28.9245 14.6187C28.9746 14.7402 29.0002 14.8704 29 15.0018V29.0018C29 29.267 28.8946 29.5214 28.7071 29.7089C28.5196 29.8964 28.2652 30.0018 28 30.0018H19C18.7348 30.0018 18.4804 29.8964 18.2929 29.7089C18.1054 29.5214 18 29.267 18 29.0018V21.0018H14V29.0018C14 29.267 13.8946 29.5214 13.7071 29.7089C13.5196 29.8964 13.2652 30.0018 13 30.0018H4C3.73479 30.0018 3.48043 29.8964 3.29289 29.7089C3.10536 29.5214 3 29.267 3 29.0018V15.0018C2.99977 14.8704 3.02543 14.7402 3.07554 14.6187C3.12564 14.4972 3.1992 14.3868 3.292 14.2938L15.292 2.29379ZM5 15.4158V28.0018H12V20.0018C12 19.7366 12.1054 19.4822 12.2929 19.2947C12.4804 19.1071 12.7348 19.0018 13 19.0018H19C19.2652 19.0018 19.5196 19.1071 19.7071 19.2947C19.8946 19.4822 20 19.7366 20 20.0018V28.0018H27V15.4158L16 4.41579L5 15.4158Z" fill="#744210"/>
<path fill-rule="evenodd" clip-rule="evenodd" d="M26 5V12L22 8V5C22 4.73478 22.1054 4.48043 22.2929 4.29289C22.4804 4.10536 22.7348 4 23 4H25C25.2652 4 25.5196 4.10536 25.7071 4.29289C25.8946 4.48043 26 4.73478 26 5Z" fill="#744210"/>
</svg>
