<svg width="32" height="32" viewBox="0 0 32 32" fill="none" xmlns="http://www.w3.org/2000/svg">
<path d="M27.4498 7.11133H4.552C4.29267 7.11133 4.04397 7.21434 3.8606 7.39771C3.67723 7.58108 3.57422 7.82978 3.57422 8.08911C3.57422 8.34843 3.67723 8.59713 3.8606 8.7805C4.04397 8.96387 4.29267 9.06688 4.552 9.06688H27.4498C27.7091 9.06688 27.9578 8.96387 28.1412 8.7805C28.3245 8.59713 28.4276 8.34843 28.4276 8.08911C28.4276 7.82978 28.3245 7.58108 28.1412 7.39771C27.9578 7.21434 27.7091 7.11133 27.4498 7.11133Z" fill="#2D3748"/>
<path d="M22.6666 14.4009C22.9259 14.4009 23.1746 14.2979 23.358 14.1145C23.5413 13.9311 23.6444 13.6824 23.6444 13.4231C23.6444 13.1638 23.5413 12.9151 23.358 12.7317C23.1746 12.5483 22.9259 12.4453 22.6666 12.4453H9.33325C9.07392 12.4453 8.82522 12.5483 8.64185 12.7317C8.45848 12.9151 8.35547 13.1638 8.35547 13.4231C8.35547 13.6824 8.45848 13.9311 8.64185 14.1145C8.82522 14.2979 9.07392 14.4009 9.33325 14.4009H22.6666Z" fill="#2D3748"/>
<path d="M26.8884 17.7773H5.11059C4.85127 17.7773 4.60257 17.8804 4.4192 18.0637C4.23583 18.2471 4.13281 18.4958 4.13281 18.7551C4.13281 19.0144 4.23583 19.2631 4.4192 19.4465C4.60257 19.6299 4.85127 19.7329 5.11059 19.7329H26.8884C27.1477 19.7329 27.3964 19.6299 27.5798 19.4465C27.7631 19.2631 27.8661 19.0144 27.8661 18.7551C27.8661 18.4958 27.7631 18.2471 27.5798 18.0637C27.3964 17.8804 27.1477 17.7773 26.8884 17.7773Z" fill="#2D3748"/>
<path d="M22.1151 23.1113H9.88403C9.75562 23.1113 9.62848 23.1366 9.50985 23.1858C9.39122 23.2349 9.28343 23.3069 9.19263 23.3977C9.10184 23.4885 9.02982 23.5963 8.98068 23.7149C8.93154 23.8336 8.90625 23.9607 8.90625 24.0891C8.90625 24.2175 8.93154 24.3447 8.98068 24.4633C9.02982 24.5819 9.10184 24.6897 9.19263 24.7805C9.28343 24.8713 9.39122 24.9433 9.50985 24.9925C9.62848 25.0416 9.75562 25.0669 9.88403 25.0669H22.1151C22.2435 25.0669 22.3707 25.0416 22.4893 24.9925C22.6079 24.9433 22.7157 24.8713 22.8065 24.7805C22.8973 24.6897 22.9693 24.5819 23.0185 24.4633C23.0676 24.3447 23.0929 24.2175 23.0929 24.0891C23.0929 23.9607 23.0676 23.8336 23.0185 23.7149C22.9693 23.5963 22.8973 23.4885 22.8065 23.3977C22.7157 23.3069 22.6079 23.2349 22.4893 23.1858C22.3707 23.1366 22.2435 23.1113 22.1151 23.1113Z" fill="#2D3748"/>
</svg>
