<svg width="32" height="32" viewBox="0 0 32 32" fill="none" xmlns="http://www.w3.org/2000/svg">
<path d="M6.66667 29.3327H25.3333C26.804 29.3327 28 28.1367 28 26.666V11.9993C28 11.6457 27.8595 11.3066 27.6095 11.0565C27.3594 10.8065 27.0203 10.666 26.6667 10.666H22.6667V9.33268C22.6667 5.65668 19.676 2.66602 16 2.66602C12.324 2.66602 9.33333 5.65668 9.33333 9.33268V10.666H5.33333C4.97971 10.666 4.64057 10.8065 4.39052 11.0565C4.14048 11.3066 4 11.6457 4 11.9993V26.666C4 28.1367 5.196 29.3327 6.66667 29.3327ZM12 9.33268C12 7.12735 13.7947 5.33268 16 5.33268C18.2053 5.33268 20 7.12735 20 9.33268V10.666H12V9.33268ZM6.66667 13.3327H9.33333V15.9993H12V13.3327H20V15.9993H22.6667V13.3327H25.3333L25.336 26.666H6.66667V13.3327Z" fill="#2C5282"/>
</svg>
