<svg width="18" height="18" viewBox="0 0 18 18" fill="none" xmlns="http://www.w3.org/2000/svg">
<path d="M13.473 8.946C15.3911 8.946 16.946 8.06266 16.946 6.973C16.946 5.88334 15.3911 5 13.473 5C11.5549 5 10 5.88334 10 6.973C10 8.06266 11.5549 8.946 13.473 8.946Z" fill="#5A67D8"/>
<path fill-rule="evenodd" clip-rule="evenodd" d="M13.525 10.081C11.041 10.081 10.052 9.04001 10.052 8.43701V11.02C10.052 12.11 11.607 12.992 13.525 12.992C15.445 12.992 17 12.11 17 11.02V8.49901C17 9.10301 16.01 10.081 13.525 10.081Z" fill="#5A67D8"/>
<path fill-rule="evenodd" clip-rule="evenodd" d="M13.525 14.072C11.303 14.072 10.052 13.071 10.052 12.468V15.027C10.052 16.117 11.607 17 13.525 17C15.445 17 17 16.117 17 15.027V12.437C17 13.04 15.748 14.072 13.525 14.072Z" fill="#5A67D8"/>
<path d="M4.937 4.946C7.11135 4.946 8.874 4.06266 8.874 2.973C8.874 1.88334 7.11135 1 4.937 1C2.76266 1 1 1.88334 1 2.973C1 4.06266 2.76266 4.946 4.937 4.946Z" fill="#5A67D8"/>
<path fill-rule="evenodd" clip-rule="evenodd" d="M5.062 6.08101C2.247 6.08101 1.125 5.04001 1.125 4.43701V7.02001C1.125 8.11001 2.888 8.99201 5.062 8.99201C7.238 8.99201 9 8.11001 9 7.02001V4.49901C9 5.10301 7.877 6.08101 5.062 6.08101Z" fill="#5A67D8"/>
<path fill-rule="evenodd" clip-rule="evenodd" d="M5.062 10.072C2.543 10.072 1.125 9.07101 1.125 8.46801V11.027C1.125 12.117 2.888 13 5.062 13C7.238 13 9 12.117 9 11.027V8.43701C9 9.04001 7.58 10.072 5.062 10.072Z" fill="#5A67D8"/>
<path fill-rule="evenodd" clip-rule="evenodd" d="M5.062 14.072C2.543 14.072 1.125 13.071 1.125 12.468V15.027C1.125 16.117 2.888 17 5.062 17C7.238 17 9 16.117 9 15.027V12.437C9 13.04 7.58 14.072 5.062 14.072Z" fill="#5A67D8"/>
</svg>
