<svg width="32" height="32" viewBox="0 0 32 32" fill="none" xmlns="http://www.w3.org/2000/svg">
<path d="M15.9993 9.33268C14.6001 9.33268 13.2364 9.77293 12.1013 10.5911C10.9662 11.4092 10.1173 12.5638 9.67479 13.8912C9.23232 15.2186 9.21872 16.6516 9.63593 17.9871C10.0531 19.3227 10.88 20.4932 11.9993 21.3327V26.666C11.9993 27.3733 12.2803 28.0515 12.7804 28.5516C13.2805 29.0517 13.9588 29.3327 14.666 29.3327H17.3327C18.0399 29.3327 18.7182 29.0517 19.2183 28.5516C19.7184 28.0515 19.9993 27.3733 19.9993 26.666V21.3327C21.1187 20.4932 21.9456 19.3227 22.3628 17.9871C22.78 16.6516 22.7664 15.2186 22.3239 13.8912C21.8814 12.5638 21.0325 11.4092 19.8974 10.5911C18.7623 9.77293 17.3986 9.33268 15.9993 9.33268ZM17.9993 19.4527C17.7959 19.5702 17.6271 19.7393 17.51 19.943C17.3929 20.1467 17.3317 20.3777 17.3327 20.6127V26.666H14.666V20.6127C14.6669 20.3777 14.6058 20.1467 14.4887 19.943C14.3716 19.7393 14.2028 19.5702 13.9993 19.4527C13.3929 19.1025 12.8889 18.5993 12.5379 17.9932C12.187 17.3872 12.0012 16.6997 11.9993 15.9993C11.9993 14.9385 12.4208 13.9211 13.1709 13.1709C13.9211 12.4208 14.9385 11.9993 15.9993 11.9993C17.0602 11.9993 18.0776 12.4208 18.8278 13.1709C19.5779 13.9211 19.9993 14.9385 19.9993 15.9993C19.9975 16.6997 19.8117 17.3872 19.4608 17.9932C19.1098 18.5993 18.6058 19.1025 17.9993 19.4527ZM15.9993 7.99935C16.353 7.99935 16.6921 7.85887 16.9422 7.60882C17.1922 7.35878 17.3327 7.01964 17.3327 6.66602V3.99935C17.3327 3.64573 17.1922 3.30659 16.9422 3.05654C16.6921 2.80649 16.353 2.66602 15.9993 2.66602C15.6457 2.66602 15.3066 2.80649 15.0565 3.05654C14.8065 3.30659 14.666 3.64573 14.666 3.99935V6.66602C14.666 7.01964 14.8065 7.35878 15.0565 7.60882C15.3066 7.85887 15.6457 7.99935 15.9993 7.99935ZM27.9993 14.666H25.3327C24.9791 14.666 24.6399 14.8065 24.3899 15.0565C24.1398 15.3066 23.9993 15.6457 23.9993 15.9993C23.9993 16.353 24.1398 16.6921 24.3899 16.9422C24.6399 17.1922 24.9791 17.3327 25.3327 17.3327H27.9993C28.353 17.3327 28.6921 17.1922 28.9422 16.9422C29.1922 16.6921 29.3327 16.353 29.3327 15.9993C29.3327 15.6457 29.1922 15.3066 28.9422 15.0565C28.6921 14.8065 28.353 14.666 27.9993 14.666ZM6.66602 14.666H3.99935C3.64573 14.666 3.30659 14.8065 3.05654 15.0565C2.80649 15.3066 2.66602 15.6457 2.66602 15.9993C2.66602 16.353 2.80649 16.6921 3.05654 16.9422C3.30659 17.1922 3.64573 17.3327 3.99935 17.3327H6.66602C7.01964 17.3327 7.35878 17.1922 7.60882 16.9422C7.85887 16.6921 7.99935 16.353 7.99935 15.9993C7.99935 15.6457 7.85887 15.3066 7.60882 15.0565C7.35878 14.8065 7.01964 14.666 6.66602 14.666ZM10.2127 8.55935L8.29268 6.66602C8.03277 6.42025 7.68587 6.2878 7.3283 6.2978C6.97073 6.3078 6.63178 6.45944 6.38602 6.71935C6.14025 6.97926 6.0078 7.32616 6.0178 7.68373C6.0278 8.0413 6.17944 8.38025 6.43935 8.62602L8.35935 10.4793C8.4882 10.6038 8.64079 10.7009 8.80802 10.7651C8.97525 10.8292 9.15369 10.859 9.33268 10.8527C9.51229 10.852 9.68991 10.815 9.85487 10.744C10.0198 10.673 10.1688 10.5694 10.2927 10.4393C10.5307 10.1791 10.6559 9.83517 10.6409 9.48283C10.6259 9.13048 10.4719 8.79843 10.2127 8.55935ZM25.586 6.73268C25.3362 6.48435 24.9983 6.34496 24.646 6.34496C24.2938 6.34496 23.9558 6.48435 23.706 6.73268L21.786 8.55935C21.5377 8.80917 21.3983 9.1471 21.3983 9.49935C21.3983 9.8516 21.5377 10.1895 21.786 10.4393C21.9099 10.5694 22.0589 10.673 22.2238 10.744C22.3888 10.815 22.5664 10.852 22.746 10.8527C23.0893 10.8513 23.4188 10.7176 23.666 10.4793L25.586 8.62602C25.711 8.50206 25.8102 8.3546 25.8779 8.19212C25.9456 8.02964 25.9804 7.85537 25.9804 7.67935C25.9804 7.50333 25.9456 7.32906 25.8779 7.16658C25.8102 7.0041 25.711 6.85663 25.586 6.73268Z" fill="#285E61"/>
</svg>
